<?xml version="1.0" standalone="no"?>
<!DOCTYPE svg PUBLIC "-//W3C//DTD SVG 20010904//EN"
 "http://www.w3.org/TR/2001/REC-SVG-20010904/DTD/svg10.dtd">
<svg version="1.0" xmlns="http://www.w3.org/2000/svg"
 width="500.000000pt" height="500.000000pt" viewBox="0 0 500.000000 500.000000"
 preserveAspectRatio="xMidYMid meet">

<g transform="translate(0.000000,500.000000) scale(0.100000,-0.100000)"
fill="#000000" stroke="none">
<path d="M2494 4720 c0 -157 2 -221 3 -142 2 78 2 206 0 285 -1 78 -3 14 -3
-143z"/>
<path d="M2510 4325 c-4 -612 -5 -645 -10 -335 l-5 345 -3 -341 -2 -341 -82
-8 c-257 -22 -488 -179 -606 -410 -11 -23 -23 -58 -27 -78 -4 -20 -8 -37 -10
-37 -1 0 -26 4 -55 10 -95 18 -236 -17 -336 -83 -110 -72 -208 -206 -240 -327
-9 -36 -18 -110 -20 -165 l-3 -100 -28 -6 c-42 -9 -123 -46 -160 -75 -51 -39
-110 -123 -138 -197 -31 -82 -35 -221 -9 -308 51 -171 190 -309 374 -372 78
-26 232 -28 325 -3 l70 19 64 -41 c123 -80 265 -114 388 -92 70 12 150 41 193
71 39 27 60 26 141 -9 129 -54 265 -64 370 -27 37 13 41 12 102 -19 160 -84
397 -65 550 43 l42 30 85 -25 c75 -23 98 -25 195 -21 74 3 132 12 177 26 82
26 201 104 261 171 51 57 114 171 133 244 28 104 10 251 -43 348 -38 70 -149
171 -214 196 -57 21 -59 23 -84 94 -23 67 -83 129 -165 172 -38 20 -70 43 -70
50 0 34 -65 139 -113 181 -85 77 -157 106 -261 106 l-54 0 -6 47 c-13 87 -37
157 -81 228 -118 190 -349 336 -567 359 l-68 7 -3 676 -2 677 -5 -680z m-18
-747 c1 -29 3 -82 4 -118 2 -36 3 -73 3 -83 1 -10 6 -15 11 -12 6 4 10 60 10
136 l0 129 33 -1 c55 -3 219 -49 272 -76 71 -37 116 -69 108 -77 -4 -4 0 -4 8
-1 31 12 207 -187 211 -239 1 -14 4 -23 7 -20 11 11 40 -87 37 -127 -2 -45
-29 -89 -53 -89 -7 0 -13 -8 -13 -17 -1 -16 -2 -16 -15 1 -15 19 -15 19 -15
-3 0 -16 -4 -21 -15 -17 -8 3 -15 1 -15 -4 0 -6 -6 -10 -13 -10 -7 0 -23 -9
-34 -19 -12 -11 -23 -18 -26 -15 -2 3 -7 -3 -9 -14 -5 -17 -3 -17 36 2 34 18
60 21 151 21 100 -1 115 -3 167 -29 63 -31 74 -41 111 -107 21 -35 24 -48 15
-57 -9 -9 -9 -12 1 -12 7 0 9 -5 6 -11 -4 -6 -13 -8 -21 -5 -8 3 -14 -1 -14
-10 0 -8 -4 -13 -8 -10 -5 3 -19 -6 -30 -19 -12 -14 -26 -25 -31 -25 -5 0 -12
-7 -15 -16 -5 -13 -1 -15 21 -9 78 20 94 21 178 10 95 -12 175 -65 175 -116 0
-11 4 -18 8 -15 4 2 9 -4 9 -15 1 -10 -3 -19 -9 -19 -5 0 -8 -7 -4 -15 3 -8 0
-14 -6 -12 -7 1 -14 -7 -16 -17 -5 -23 -27 -47 -36 -41 -3 3 -4 2 -1 -2 3 -3
-1 -13 -8 -21 -10 -13 -8 -14 13 -9 144 40 248 53 290 37 3 -1 9 -2 14 -1 16
3 25 -22 15 -43 -8 -16 -6 -15 9 3 l20 25 46 -38 c25 -20 46 -44 46 -51 0 -8
8 -20 18 -27 30 -23 76 -112 68 -133 -3 -8 -1 -15 5 -15 5 0 7 -12 3 -27 -4
-22 -3 -25 6 -13 8 11 10 -3 7 -60 -6 -89 -9 -106 -25 -122 -7 -7 -12 -20 -12
-30 0 -10 -9 -27 -20 -38 -11 -11 -18 -20 -15 -20 6 0 -21 -30 -93 -102 -44
-45 -70 -58 -41 -21 13 16 12 17 -3 4 -10 -7 -18 -10 -18 -7 0 4 -5 4 -10 1
-8 -5 -7 -11 1 -21 6 -8 9 -15 5 -15 -13 -3 -26 -7 -31 -9 -3 -1 -8 -3 -12 -5
-5 -1 -21 -7 -36 -13 -16 -7 -34 -12 -42 -12 -7 0 -16 -7 -19 -16 -3 -8 -10
-12 -16 -9 -6 4 -7 11 -4 17 4 7 2 8 -5 4 -6 -4 -9 -11 -6 -16 7 -12 -22 -27
-60 -31 -16 -2 -36 -12 -43 -21 -7 -9 -19 -15 -27 -12 -23 9 -18 23 6 19 15
-3 19 0 15 10 -3 9 1 12 14 10 11 -2 22 0 24 4 8 12 -36 6 -64 -9 -14 -7 -26
-13 -27 -12 -10 6 -33 0 -33 -8 0 -7 6 -7 18 -1 14 7 19 6 19 -4 0 -7 -7 -11
-15 -7 -10 3 -13 1 -8 -6 4 -7 5 -12 3 -12 -7 0 -48 38 -50 47 -1 4 -8 8 -16
10 -8 1 -3 -9 10 -24 l24 -26 -24 13 c-19 10 -25 10 -32 -1 -8 -13 -13 -5 -10
15 1 5 -5 16 -14 26 -14 15 -14 20 0 48 17 32 11 97 -6 70 -7 -10 -9 -9 -9 4
0 9 -6 15 -12 14 -19 -3 -78 -39 -78 -47 0 -4 -14 -18 -32 -30 -17 -13 -28
-17 -23 -10 5 9 3 12 -6 9 -8 -3 -13 -11 -11 -18 2 -8 -5 -9 -19 -5 -13 4 -19
3 -16 -2 7 -11 -17 -10 -51 1 -13 4 -20 12 -15 19 4 7 -2 5 -12 -3 -14 -11
-17 -12 -11 -1 6 9 5 12 -5 9 -8 -3 -18 1 -24 9 -9 11 -55 27 -55 19 0 -2 14
-20 30 -41 22 -28 27 -41 18 -46 -7 -4 -16 -5 -22 -2 -5 3 -6 1 -2 -5 14 -22
-5 -34 -25 -16 -10 9 -19 13 -19 8 0 -5 -4 -4 -8 1 -10 15 -123 87 -128 82 -2
-2 16 -23 40 -47 25 -24 42 -48 40 -52 -3 -4 4 -8 15 -8 11 0 25 -9 31 -20 9
-17 7 -19 -24 -16 -31 2 -34 0 -25 -17 9 -16 8 -17 -9 -8 -15 8 -23 7 -31 -3
-6 -7 -8 -16 -4 -20 4 -4 -13 2 -39 13 -29 12 -49 16 -55 10 -13 -13 -45 0
-36 15 5 7 2 7 -8 -1 -8 -7 -26 -9 -39 -6 -18 5 -21 3 -16 -8 4 -8 0 -5 -8 5
-12 15 -16 16 -17 5 0 -9 -2 -10 -5 -2 -3 7 -13 9 -22 6 -15 -6 -16 -5 -2 13
14 19 14 19 -8 0 -13 -12 -22 -14 -22 -7 0 7 -5 9 -12 5 -8 -5 -7 -1 2 10 17
22 21 44 10 51 -5 3 -7 -4 -5 -15 6 -32 -26 -42 -55 -18 -14 11 -19 16 -11 12
9 -5 12 -3 7 5 -4 6 -12 9 -17 5 -6 -3 -19 2 -30 12 -17 15 -24 16 -39 6 -24
-14 -74 -16 -65 -2 7 12 -23 2 -44 -14 -11 -8 -15 -8 -18 1 -3 10 -9 8 -21 -3
-10 -10 -18 -12 -20 -6 -2 6 -10 8 -18 5 -8 -3 -14 0 -14 7 0 9 -4 9 -17 -1
-15 -12 -16 -12 -10 4 5 15 3 16 -12 7 -23 -12 -37 12 -17 29 7 6 12 21 11 33
-2 20 -6 23 -40 20 -21 -2 -44 -10 -52 -17 -7 -7 -27 -16 -45 -20 -18 -4 -43
-13 -56 -21 -12 -8 -27 -12 -32 -9 -6 3 -10 1 -10 -5 0 -6 -4 -8 -10 -5 -5 3
-10 2 -10 -4 0 -6 -7 -8 -15 -5 -8 4 -21 1 -29 -5 -7 -6 -16 -8 -19 -4 -4 3
-7 1 -7 -5 0 -6 -7 -9 -17 -5 -10 4 -14 2 -10 -4 3 -5 0 -10 -8 -10 -8 0 -12
4 -9 9 3 4 -2 5 -10 2 -9 -3 -14 -10 -11 -14 3 -4 -5 -10 -16 -13 -16 -4 -19
-2 -15 11 5 15 4 15 -7 2 -6 -8 -18 -16 -26 -18 -12 -3 -12 -1 0 15 13 17 13
17 -4 4 -20 -16 -82 -19 -94 -6 -5 4 -3 5 3 2 6 -3 11 0 11 8 0 11 -4 12 -13
4 -18 -15 -56 -20 -48 -7 5 7 0 9 -14 6 -12 -4 -26 0 -33 8 -7 8 -18 13 -24
10 -18 -6 -35 14 -27 33 5 14 4 14 -14 2 -10 -8 1 4 26 27 24 23 42 44 39 46
-3 3 -29 0 -57 -8 -46 -12 -51 -11 -40 2 11 13 10 14 -10 3 -13 -7 -26 -10
-29 -7 -4 3 -13 0 -21 -7 -13 -10 -14 -9 -7 2 6 11 3 13 -14 8 -19 -5 -22 -2
-18 14 4 17 3 18 -9 8 -11 -9 -14 -8 -14 3 0 17 -44 18 -62 1 -6 -7 -8 -13 -4
-13 5 0 3 -7 -4 -15 -10 -12 -16 -13 -29 -3 -11 9 -10 5 3 -9 18 -22 18 -22
-3 -18 -11 2 -21 0 -21 -4 0 -5 -11 -11 -25 -13 -14 -3 -25 -1 -25 5 0 6 -4 6
-12 0 -17 -14 -77 -14 -101 -2 -12 7 -16 17 -12 27 5 13 1 12 -16 -4 -14 -11
-19 -13 -14 -4 6 10 2 9 -12 -3 -20 -17 -42 -9 -29 11 3 5 -1 9 -8 9 -9 0 -12
-7 -9 -16 4 -11 1 -10 -9 3 -8 10 -20 16 -26 12 -7 -4 -12 -1 -12 9 0 10 5 13
12 9 6 -4 8 -3 5 3 -4 6 -18 9 -31 8 -15 -2 -31 5 -43 18 l-18 22 25 -20 c24
-19 24 -19 7 0 -9 11 -29 19 -45 20 -15 0 -27 5 -27 10 -1 23 -27 55 -38 48
-7 -4 -5 2 3 12 14 17 14 18 -9 6 -13 -7 -21 -9 -17 -3 3 5 -1 13 -10 16 -10
4 -14 12 -10 23 4 10 4 15 1 11 -10 -10 -45 24 -45 44 0 10 -5 18 -11 18 -6 0
-8 9 -4 21 5 13 3 19 -3 15 -16 -10 -20 72 -7 170 15 106 47 180 109 246 54
58 97 80 155 79 71 -2 80 -3 85 -17 5 -13 61 -45 111 -64 20 -7 25 -6 25 5 0
8 -6 15 -14 15 -8 0 -18 5 -21 11 -14 21 4 19 40 -6 33 -22 37 -30 13 -26 -5
0 -8 -3 -8 -9 0 -13 6 -13 31 0 14 8 19 7 19 -2 1 -9 4 -8 13 3 7 9 18 14 25
12 18 -7 14 9 -11 39 -25 31 -102 72 -169 89 -45 12 -46 14 -51 58 -5 48 7
188 20 231 20 63 83 161 144 223 77 78 158 120 267 138 59 10 73 9 101 -5 17
-9 29 -21 26 -25 -2 -5 4 -11 15 -14 11 -3 20 -9 18 -14 -3 -12 38 -137 58
-174 9 -18 39 -55 67 -83 l51 -51 -24 40 c-13 22 -32 52 -42 67 -38 55 -60
147 -56 234 3 73 8 90 48 169 24 49 55 99 68 112 12 12 19 23 15 23 -9 0 44
49 105 98 59 47 216 120 292 136 36 8 89 15 118 15 l52 1 2 -52z m929 -622
c42 -3 115 -48 134 -82 5 -11 14 -22 19 -25 5 -4 5 -12 2 -18 -4 -6 -4 -11 1
-10 25 4 35 -3 30 -21 -3 -11 -1 -23 4 -26 16 -10 9 -43 -11 -49 -27 -8 -43 3
-37 26 3 11 1 17 -4 13 -5 -3 -9 -13 -9 -22 0 -11 -5 -7 -15 11 -28 53 -90
120 -148 157 -51 33 -56 40 -40 48 9 6 21 8 26 5 4 -2 26 -6 48 -7z m299 -326
c1 12 3 11 11 -3 8 -14 14 -15 24 -7 10 8 17 7 27 -7 7 -10 19 -18 26 -18 6 0
12 -4 11 -9 0 -5 6 -13 15 -18 9 -5 16 -16 16 -23 0 -8 4 -15 9 -15 5 0 9 -11
9 -25 0 -15 -6 -25 -15 -25 -7 0 -16 -7 -19 -15 -4 -8 -10 -15 -15 -15 -4 0
-6 7 -3 15 4 8 2 15 -3 15 -6 0 -15 10 -20 23 -20 40 -72 102 -94 109 -7 2 -9
9 -5 17 7 11 10 11 17 0 7 -12 9 -11 9 1z m-188 -1107 c-10 -4 -10 -8 0 -21
11 -15 10 -15 -6 0 -12 10 -16 23 -12 34 5 14 9 15 19 4 9 -10 9 -14 -1 -17z
m-318 9 c3 -5 -1 -9 -9 -9 -8 0 -15 4 -15 9 0 4 4 8 9 8 6 0 12 -4 15 -8z
m-234 -106 c0 -2 -12 -1 -26 2 -20 4 -25 2 -19 -8 6 -9 3 -10 -14 -1 -24 13
-29 23 -7 15 8 -3 17 -1 21 5 4 8 12 8 26 1 10 -6 19 -12 19 -14z m75 14 c3
-5 1 -10 -4 -10 -6 0 -11 5 -11 10 0 6 2 10 4 10 3 0 8 -4 11 -10z"/>
<path d="M1286 1593 c-6 -14 -5 -15 5 -6 7 7 10 15 7 18 -3 3 -9 -2 -12 -12z"/>
<path d="M1245 1590 c-3 -5 -1 -10 4 -10 6 0 11 5 11 10 0 6 -2 10 -4 10 -3 0
-8 -4 -11 -10z"/>
<path d="M1665 1551 c-3 -5 -2 -12 3 -15 5 -3 9 1 9 9 0 17 -3 19 -12 6z"/>
<path d="M2705 1511 c-3 -5 -2 -12 3 -15 5 -3 9 1 9 9 0 17 -3 19 -12 6z"/>
<path d="M3514 2855 c1 -13 5 -27 9 -30 4 -3 5 -2 2 2 -3 3 0 12 5 18 7 9 6
16 -3 24 -11 9 -14 6 -13 -14z"/>
<path d="M3549 2783 c-13 -16 -12 -17 4 -4 9 7 17 15 17 17 0 8 -8 3 -21 -13z"/>
<path d="M3786 2571 c-4 -5 -2 -12 3 -15 5 -4 12 -2 15 3 4 5 2 12 -3 15 -5 4
-12 2 -15 -3z"/>
<path d="M3819 2533 c-13 -16 -12 -17 4 -4 16 13 21 21 13 21 -2 0 -10 -8 -17
-17z"/>
<path d="M2492 4400 c0 -14 2 -19 5 -12 2 6 2 18 0 25 -3 6 -5 1 -5 -13z"/>
</g>
</svg>
